# xmcd
#
# Track frame offsets: 
#        200
#        13897
#        30007
#        45472
#        61077
#        80347
#        94315
#        109570
#        124705
#        143327
#        162622
#
# Disc length: 2294 seconds
#
# Revision: 2
# Processed by: cddbd v1.5.2PL0 Copyright (c) Steve Scherf et al.
# Submitted via: ExactAudioCopy v0.99pb5
#
DISCID=7c08f40b
DTITLE=Mitch Woods and his Rocket 88s - Solid Gold Cadillac
DYEAR=1991
DGENRE=Blues
TTITLE0=Solid Gold Cadillac
TTITLE1=Blues Hangover
TTITLE2=Crawfishin'
TTITLE3=Pink Champagne
TTITLE4=Frosty
TTITLE5=Quiet Whiskey
TTITLE6=That Will Never Do
TTITLE7=Got A New Car
TTITLE8=Better By The Dozen
TTITLE9=House Of Blue Lights
TTITLE10=10th and Parker Blues
EXTD=
EXTT0=
EXTT1=
EXTT2=
EXTT3=
EXTT4=
EXTT5=
EXTT6=
EXTT7=
EXTT8=
EXTT9=
EXTT10=
PLAYORDER=
